<svg id="Слой_1" data-name="Слой 1" xmlns="http://www.w3.org/2000/svg" viewBox="0 0 423.47 500"><defs><style>.cls-1{fill:#fff;}</style></defs><title>LOGO WHITE</title><path class="cls-1" d="M375.77,78.86l85.07,51.45v19.86c-20.74,10.4-41.78,21-62.15,31.24l-18.78,9.45c-7.93,4-15.73,7.88-24,12l-4.54,2.26c0-.26.09-.52.14-.78l4.52-23.52c6.42-33.41,13.05-67.91,19.72-102m-2.85-6.4c-.05.31-.09.6-.16.93-8.52,43.42-16.81,86.81-25.16,130.2-.48,2.5-.81,5-1.38,8.58,12.24-6.11,23.87-11.89,35.49-17.73q41.57-20.92,83.13-41.8V128.05L372.92,72.46Z" transform="translate(-41.37 0)"/><path class="cls-1" d="M253.11,4.67l51,30.85C217.91,111,130.29,187.59,45.37,261.82V130.31L253.11,4.67m0-4.67L41.37,128.05V270.63Q174.78,154,308.14,37.31a25.47,25.47,0,0,1,2.94-2.25L253.11,0Z" transform="translate(-41.37 0)"/><path class="cls-1" d="M460.84,217.87v164L298.29,480.21l2-10.43c11.67-60.45,23.74-123,35.57-184.43l0-.12c.87-4.54,1.29-6,4.32-7.54,42.6-21,84.57-41.88,120.62-59.82m4-6.46q-63.19,31.46-126.39,62.69c-5,2.47-5.62,5.92-6.5,10.49q-19.6,101.85-39.3,203.71L464.84,384.16V211.41Z" transform="translate(-41.37 0)"/><path class="cls-1" d="M302.16,113.88,291.83,168c-11.59,60.62-23.4,122.42-35.26,184.39l-1-.58L249,348l-129.1-74.53,82.4-72.17,99.82-87.42M65,322.65a3.83,3.83,0,0,1,1.89.65c36,21.07,72.7,42.27,112.28,64.8a14.16,14.16,0,0,0,6.89,1.72A14.81,14.81,0,0,0,192,388.6c14.71-6.48,29.66-13.47,44.11-20.22L248,362.84c1.26-.59,2.47-1.28,4.15-2.23l3.16-1.78c-8.6,44.86-17.22,89.81-25.81,134.44L45.37,381.9V338.55c5.57-4.89,10.24-9,14.58-12.88,2.28-2,3.94-3,5.09-3M308.1,103.36l-195,170.78,140.47,81.09c-3.72,2.06-5.48,3.16-7.24,4-18.64,8.68-37.28,17.52-55.91,25.73a10.74,10.74,0,0,1-4.32.88,10.11,10.11,0,0,1-4.91-1.2q-56.31-32-112.23-64.77a7.64,7.64,0,0,0-3.92-1.2c-2.33,0-4.71,1.32-7.75,4q-7.95,7.08-15.92,14.06v47.42L232.91,500a20.61,20.61,0,0,1,.43-5.41q36.69-190.65,73-381.22c.52-2.72,1-5.42,1.77-10Z" transform="translate(-41.37 0)"/></svg>